<svg xmlns="http://www.w3.org/2000/svg"
    xmlns:xlink="http://www.w3.org/1999/xlink" version="1.1" width="1000" height="1000" viewBox="0 0 1000 1000" xml:space="preserve">
    <defs>
    </defs>
    <rect x="0" y="0" width="100%" height="100%" fill="rgba(255,255,255,0)"/>
    <g transform="matrix(1.7756 0 0 1.7756 500.0081 500.0081)" id="152993">
        <path style="stroke: none; stroke-width: 1; stroke-dasharray: none; stroke-linecap: butt; stroke-dashoffset: 0; stroke-linejoin: miter; stroke-miterlimit: 4; is-custom-font: none; font-file-url: none; fill: rgb(132,130,212); fill-rule: nonzero; opacity: 1;" vector-effect="non-scaling-stroke" transform=" translate(-256, -256)" d="M 192 104.8 c 0 -9.2 -5.8 -17.3 -13.2 -22.8 C 167.2 73.3 160 61.3 160 48 c 0 -26.5 28.7 -48 64 -48 s 64 21.5 64 48 c 0 13.3 -7.2 25.3 -18.8 34 c -7.4 5.5 -13.2 13.6 -13.2 22.8 c 0 12.8 10.4 23.2 23.2 23.2 H 336 c 26.5 0 48 21.5 48 48 v 56.8 c 0 12.8 10.4 23.2 23.2 23.2 c 9.2 0 17.3 -5.8 22.8 -13.2 c 8.7 -11.6 20.7 -18.8 34 -18.8 c 26.5 0 48 28.7 48 64 s -21.5 64 -48 64 c -13.3 0 -25.3 -7.2 -34 -18.8 c -5.5 -7.4 -13.6 -13.2 -22.8 -13.2 c -12.8 0 -23.2 10.4 -23.2 23.2 V 464 c 0 26.5 -21.5 48 -48 48 H 279.2 c -12.8 0 -23.2 -10.4 -23.2 -23.2 c 0 -9.2 5.8 -17.3 13.2 -22.8 c 11.6 -8.7 18.8 -20.7 18.8 -34 c 0 -26.5 -28.7 -48 -64 -48 s -64 21.5 -64 48 c 0 13.3 7.2 25.3 18.8 34 c 7.4 5.5 13.2 13.6 13.2 22.8 c 0 12.8 -10.4 23.2 -23.2 23.2 H 48 c -26.5 0 -48 -21.5 -48 -48 V 343.2 C 0 330.4 10.4 320 23.2 320 c 9.2 0 17.3 5.8 22.8 13.2 C 54.7 344.8 66.7 352 80 352 c 26.5 0 48 -28.7 48 -64 s -21.5 -64 -48 -64 c -13.3 0 -25.3 7.2 -34 18.8 C 40.5 250.2 32.4 256 23.2 256 C 10.4 256 0 245.6 0 232.8 V 176 c 0 -26.5 21.5 -48 48 -48 H 168.8 c 12.8 0 23.2 -10.4 23.2 -23.2 z" stroke-linecap="round"/>
    </g>
</svg>